<?xml version="1.0" encoding="UTF-8" standalone="no"?>
<!-- Created with Inkscape (http://www.inkscape.org/) -->

<svg
   xmlns:dc="http://purl.org/dc/elements/1.1/"
   xmlns:cc="http://creativecommons.org/ns#"
   xmlns:rdf="http://www.w3.org/1999/02/22-rdf-syntax-ns#"
   xmlns:svg="http://www.w3.org/2000/svg"
   xmlns="http://www.w3.org/2000/svg"
   xmlns:sodipodi="http://sodipodi.sourceforge.net/DTD/sodipodi-0.dtd"
   xmlns:inkscape="http://www.inkscape.org/namespaces/inkscape"
   width="297mm"
   height="210mm"
   viewBox="0 0 297 210"
   version="1.1"
   id="svg923"
   inkscape:version="0.92.3 (2405546, 2018-03-11)"
   sodipodi:docname="desenhando.svg">
  <defs
     id="defs917" />
  <sodipodi:namedview
     id="base"
     pagecolor="#ffffff"
     bordercolor="#666666"
     borderopacity="1.0"
     inkscape:pageopacity="0.0"
     inkscape:pageshadow="2"
     inkscape:zoom="2"
     inkscape:cx="246.72143"
     inkscape:cy="467.4341"
     inkscape:document-units="mm"
     inkscape:current-layer="layer1"
     showgrid="false"
     inkscape:window-width="1366"
     inkscape:window-height="705"
     inkscape:window-x="-8"
     inkscape:window-y="-8"
     inkscape:window-maximized="1" />
  <metadata
     id="metadata920">
    <rdf:RDF>
      <cc:Work
         rdf:about="">
        <dc:format>image/svg+xml</dc:format>
        <dc:type
           rdf:resource="http://purl.org/dc/dcmitype/StillImage" />
        <dc:title></dc:title>
      </cc:Work>
    </rdf:RDF>
  </metadata>
  <g
     inkscape:label="Camada 1"
     inkscape:groupmode="layer"
     id="layer1"
     transform="translate(0,-87)">
    <path
       style="opacity:1;fill:#000000;fill-opacity:1;fill-rule:nonzero;stroke:none;stroke-width:0.26499999;stroke-linecap:round;stroke-linejoin:round;stroke-miterlimit:4;stroke-dasharray:none;stroke-dashoffset:365.29129028;stroke-opacity:1;paint-order:stroke fill markers"
       id="path2231"
       sodipodi:type="arc"
       sodipodi:cx="43.479378"
       sodipodi:cy="165.3343"
       sodipodi:rx="38.44672"
       sodipodi:ry="45.322227"
       sodipodi:start="0"
       sodipodi:end="6.2679137"
       sodipodi:open="true"
       d="M 81.926098,165.3343 A 38.44672,45.322227 0 0 1 43.626163,210.6562 38.44672,45.322227 0 0 1 5.0337784,165.68037 38.44672,45.322227 0 0 1 43.03903,120.01505 38.44672,45.322227 0 0 1 81.921615,164.64219" />
    <path
       style="opacity:1;fill:#d14522;fill-opacity:1;fill-rule:nonzero;stroke:none;stroke-width:0.37795275;stroke-linecap:round;stroke-linejoin:round;stroke-miterlimit:4;stroke-dasharray:none;stroke-dashoffset:365.29129028;stroke-opacity:1;paint-order:stroke fill markers"
       d=""
       id="path1662"
       inkscape:connector-curvature="0"
       transform="matrix(0.26458333,0,0,0.26458333,0,87)" />
    <g
       id="g3067"
       style="stroke:#ffffff;stroke-opacity:1;stroke-width:0.4;stroke-miterlimit:4;stroke-dasharray:none">
      <g
         id="g2775"
         style="stroke:#ffffff;stroke-opacity:1;stroke-width:0.4;stroke-miterlimit:4;stroke-dasharray:none">
        <g
           id="g2318"
           transform="matrix(0.97949323,-0.20147708,0.17794252,0.86507853,-25.59966,16.360344)"
           style="stroke-width:0.4256307;stroke:#ffffff;stroke-opacity:1;stroke-miterlimit:4;stroke-dasharray:none">
          <path
             sodipodi:nodetypes="ccccccccc"
             inkscape:connector-curvature="0"
             id="path2062-2"
             d="m 39.219054,211.89799 6.752406,-27.65434 -6.846092,6.15156 -4.987774,21.04342 z m -4.756966,-2.32048 6.217709,-3.43959 -3.819922,-6.15157 6.531901,-5.12629"
             style="fill:none;stroke:#ffffff;stroke-width:0.4256307;stroke-linecap:butt;stroke-linejoin:round;stroke-miterlimit:4;stroke-dasharray:none;stroke-opacity:1" />
          <g
             id="g2308"
             style="stroke-width:0.4256307;stroke:#ffffff;stroke-opacity:1;stroke-miterlimit:4;stroke-dasharray:none">
            <g
               id="g2139"
               transform="translate(5.5570435,-74.632179)"
               style="stroke-width:0.4256307;stroke:#ffffff;stroke-opacity:1;stroke-miterlimit:4;stroke-dasharray:none">
              <path
                 inkscape:connector-curvature="0"
                 id="path2119"
                 transform="matrix(0.26458333,0,0,0.26458333,0,87)"
                 d="m 141.39062,692.15625 c -0.15125,-0.13499 -20.00998,15.4244 -21.29101,16.68164 -0.36377,0.35701 2.01912,4.92745 5.65625,10.8457 3.45703,5.62518 6.37305,10.1451 6.47852,10.04493 0.2879,-0.27344 9.33798,-37.41008 9.15624,-37.57227 z"
                 style="opacity:1;fill:#6d2d14;fill-opacity:1;fill-rule:nonzero;stroke:#ffffff;stroke-width:1.60868297;stroke-linecap:round;stroke-linejoin:round;stroke-miterlimit:4;stroke-dasharray:none;stroke-dashoffset:365.29129028;stroke-opacity:1;paint-order:stroke fill markers" />
              <path
                 id="path2084"
                 d="m 26.592175,274.6242 c -0.01569,-0.0141 -1.103008,0.72684 -2.41639,1.64693 -1.313383,0.92009 -2.521034,1.76206 -2.683557,1.8712 -0.29326,0.19694 -0.280376,0.21744 1.653646,2.70837 l 1.948718,2.50992 0.763261,-4.35529 c 0.419759,-2.39555 0.750012,-4.367 0.734322,-4.38113 z m 4.82813,0.64183 c -0.081,-0.0276 -2.039255,8.0564 -2.019517,8.33696 0.004,0.0564 0.200713,0.003 0.437184,-0.11886 0.517906,-0.26702 4.909889,-2.70961 4.970238,-2.76417 0.0588,-0.0532 -3.271404,-5.41422 -3.387905,-5.45393 z"
                 style="opacity:0.95;fill:#f0772e;fill-opacity:1;fill-rule:nonzero;stroke:#ffffff;stroke-width:0.4256307;stroke-linecap:round;stroke-linejoin:round;stroke-miterlimit:4;stroke-dasharray:none;stroke-dashoffset:365.29129028;stroke-opacity:1;paint-order:stroke fill markers"
                 inkscape:connector-curvature="0" />
              <path
                 id="path2107"
                 d="m 23.934456,269.15942 -0.57981,0.19534 c -0.318692,0.10734 -0.604411,0.21475 -0.635103,0.23874 -0.06573,0.0514 -1.341603,7.55218 -1.345137,7.90805 -0.002,0.20049 2.685211,-1.53341 4.726326,-3.04943 l 0.503844,-0.37413 -1.335318,-2.45929 z m -2.725415,9.92033 c -0.07396,-0.0273 -0.286404,0.85703 -0.472323,1.96473 -0.185918,1.1077 -0.381098,2.23954 -0.433565,2.51561 -0.09319,0.49034 -0.04826,0.51718 1.936833,1.15704 1.117644,0.36024 2.126996,0.66034 2.242757,0.66714 0.187555,0.011 0.443901,-0.7856 0.443901,-1.37873 0,-0.2292 -3.477923,-4.83744 -3.717603,-4.92579 z m 13.42347,2.30373 c -0.03871,-0.0383 -1.249175,0.58147 -2.689757,1.3777 -2.511854,1.38833 -2.629879,1.48031 -2.874246,2.23914 -0.140149,0.43519 -0.224316,0.82107 -0.187068,0.85782 0.03725,0.0367 0.951997,0.1465 2.032434,0.24392 1.080437,0.0974 2.102032,0.18905 2.270146,0.2036 0.241125,0.0209 0.433546,-0.48871 0.91209,-2.41329 0.333645,-1.34184 0.575117,-2.47058 0.536401,-2.50889 z"
                 style="opacity:1;fill:#6d2d14;fill-opacity:1;fill-rule:nonzero;stroke:#ffffff;stroke-width:0.4256307;stroke-linecap:round;stroke-linejoin:round;stroke-miterlimit:4;stroke-dasharray:none;stroke-dashoffset:365.29129028;stroke-opacity:1;paint-order:stroke fill markers"
                 inkscape:connector-curvature="0" />
              <path
                 id="path2122"
                 d="m 34.345189,265.6723 c -0.03971,10e-4 -0.108929,0.0609 -0.227375,0.17931 -0.152511,0.15251 -0.357971,0.30564 -0.456819,0.34055 -0.15277,0.054 -1.885156,6.90083 -1.885156,7.45071 0,0.10461 0.04837,0.19017 0.107487,0.19017 0.05912,0 1.395664,-1.0153 2.969844,-2.25568 l 2.86184,-2.25516 0.212391,-1.0573 c 0.208786,-1.03962 0.20396,-1.06417 -0.303342,-1.47949 -0.283784,-0.23234 -0.735978,-0.42573 -1.004588,-0.42943 -1.19892,-0.0165 -2.224154,-0.25304 -2.224154,-0.51315 0,-0.11472 -0.01042,-0.17178 -0.05013,-0.17053 z m -6.786666,2.42724 c -0.198747,2.6e-4 -0.882446,0.17691 -1.651061,0.43098 l -1.597318,0.52762 0.670243,1.21801 c 0.368509,0.66985 0.929453,1.68003 1.246436,2.24482 l 0.576191,1.02681 0.458888,-2.66443 c 0.252417,-1.46553 0.410379,-2.71295 0.350882,-2.77244 -0.0074,-0.007 -0.02588,-0.0114 -0.05426,-0.0114 z"
                 style="opacity:1;fill:#f0772e;fill-opacity:1;fill-rule:nonzero;stroke:#ffffff;stroke-width:0.4256307;stroke-linecap:round;stroke-linejoin:round;stroke-miterlimit:4;stroke-dasharray:none;stroke-dashoffset:365.29129028;stroke-opacity:1;paint-order:stroke fill markers"
                 inkscape:connector-curvature="0" />
            </g>
            <path
               sodipodi:nodetypes="ccccccccc"
               inkscape:connector-curvature="0"
               id="path2300"
               d="m 25.643479,209.54106 4.52747,-27.65529 3.833004,8.2092 -3.581401,20.98623 z m 5.20146,-0.2709 -4.307614,-5.51016 5.827217,-4.10286 -3.943028,-7.15932"
               style="fill:none;stroke:#ffffff;stroke-width:0.4256307;stroke-linecap:butt;stroke-linejoin:round;stroke-miterlimit:4;stroke-dasharray:none;stroke-opacity:1" />
          </g>
        </g>
        <g
           id="g2504"
           transform="translate(7.1805366,-17.124251)"
           style="stroke:#ffffff;stroke-opacity:1;stroke-width:0.4;stroke-miterlimit:4;stroke-dasharray:none">
          <path
             inkscape:connector-curvature="0"
             id="path1623"
             d="m 41.666997,192.05972 c -1.852179,-0.45293 -5.329023,-1.29541 -7.726321,-1.87219 -2.397298,-0.57678 -4.333666,-1.11253 -4.303039,-1.19056 0.04298,-0.10951 6.218641,-5.31075 8.495352,-7.15492 0.32081,-0.25986 6.24382,-2.01757 6.798672,-2.01757 0.08442,0 0.206502,2.58884 0.271286,5.75298 0.06479,3.16413 0.157035,6.11078 0.205001,6.5481 0.06116,0.55768 0.01844,0.78954 -0.143073,0.7764 -0.126656,-0.0103 -1.7457,-0.38931 -3.597878,-0.84224 z"
             style="opacity:1;fill:#e8d4c5;fill-opacity:1;fill-rule:nonzero;stroke:#ffffff;stroke-width:0.4;stroke-linecap:round;stroke-linejoin:round;stroke-miterlimit:4;stroke-dasharray:none;stroke-dashoffset:365.29129028;stroke-opacity:1;paint-order:stroke fill markers" />
          <path
             inkscape:connector-curvature="0"
             id="path1625"
             d="m 29.335746,187.86665 c -0.264081,-1.15624 -1.396424,-7.7537 -1.340406,-7.80971 0.07446,-0.0745 4.400912,1.00494 4.524875,1.12891 0.07401,0.074 -2.478017,6.07333 -2.917822,6.85922 -0.129135,0.23075 -0.181142,0.19595 -0.266647,-0.17842 z"
             style="opacity:1;fill:#e8d4c5;fill-opacity:1;fill-rule:nonzero;stroke:#ffffff;stroke-width:0.4;stroke-linecap:round;stroke-linejoin:round;stroke-miterlimit:4;stroke-dasharray:none;stroke-dashoffset:365.29129028;stroke-opacity:1;paint-order:stroke fill markers" />
          <path
             inkscape:connector-curvature="0"
             id="path1674"
             d="m 29.973613,188.10139 c -1.87e-4,-0.0762 0.652284,-1.63673 1.449937,-3.46783 l 1.450279,-3.32927 0.554498,0.10532 c 0.304974,0.0579 0.768018,0.30941 1.028987,0.55886 0.352151,0.33661 0.724605,0.4684 1.444542,0.51117 l 0.970052,0.0576 -3.448976,2.85134 c -1.896938,1.56823 -3.449131,2.78899 -3.449319,2.71278 z"
             style="opacity:1;fill:#d04521;fill-opacity:1;fill-rule:nonzero;stroke:#ffffff;stroke-width:0.4;stroke-linecap:round;stroke-linejoin:round;stroke-miterlimit:4;stroke-dasharray:none;stroke-dashoffset:365.29129028;stroke-opacity:1;paint-order:stroke fill markers" />
          <path
             inkscape:connector-curvature="0"
             id="path1676"
             d="m 45.514173,183.89846 -0.01185,-4.25146 0.551974,-0.28544 c 0.923276,-0.47744 1.044289,-0.38492 1.457317,1.11426 l 0.385622,1.39969 -1.02856,2.76303 c -0.565708,1.51967 -1.099227,2.93141 -1.185598,3.13721 -0.09146,0.21793 -0.161991,-1.40109 -0.168896,-3.87729 z"
             style="opacity:1;fill:#d04521;fill-opacity:1;fill-rule:nonzero;stroke:#ffffff;stroke-width:0.4;stroke-linecap:round;stroke-linejoin:round;stroke-miterlimit:4;stroke-dasharray:none;stroke-dashoffset:365.29129028;stroke-opacity:1;paint-order:stroke fill markers" />
        </g>
        <g
           id="g2176"
           transform="translate(13.76992,-92.547051)"
           style="stroke:#ffffff;stroke-opacity:1;stroke-width:0.4;stroke-miterlimit:4;stroke-dasharray:none">
          <path
             inkscape:connector-curvature="0"
             id="path1515"
             d="m 47.292965,264.14669 c -0.470775,0.54972 -1.947812,2.27014 -3.282309,3.82316 -1.334495,1.55304 -2.449424,2.85796 -2.477617,2.89982 -0.04138,0.0615 -0.04119,0.0772 10e-4,0.0818 0.02877,0.003 2.999359,-0.3659 6.601351,-0.82006 3.601985,-0.45414 6.602639,-0.82894 6.668111,-0.83287 0.110449,-0.007 0.114112,-0.0102 0.05082,-0.0498 -0.03756,-0.0234 -0.07325,-0.0643 -0.07934,-0.0908 -0.0061,-0.0265 -0.02493,-0.0449 -0.04183,-0.0411 -0.01691,0.004 -0.07953,-0.0536 -0.139207,-0.12776 -0.05961,-0.0741 -0.122278,-0.13165 -0.139207,-0.12777 -0.0169,0.004 -0.03529,-0.0126 -0.0408,-0.0366 -0.0055,-0.024 -0.03982,-0.0681 -0.07616,-0.0979 -0.134491,-0.11018 -0.476795,-0.45806 -0.485698,-0.4936 -0.0051,-0.0202 -0.04834,-0.0582 -0.09618,-0.0844 -0.04783,-0.0262 -0.118623,-0.0883 -0.157293,-0.13798 -0.109132,-0.14019 -0.146839,-0.17489 -1.281323,-1.17885 -0.481687,-0.42628 -1.60457,-1.42233 -2.495293,-2.21345 -0.890725,-0.79113 -1.631557,-1.44581 -1.64629,-1.45484 -0.01468,-0.009 -0.41196,0.43335 -0.882735,0.98306 z"
             style="opacity:1;fill:#e65e27;fill-opacity:1;fill-rule:nonzero;stroke:#ffffff;stroke-width:0.4;stroke-linecap:round;stroke-linejoin:round;stroke-miterlimit:4;stroke-dasharray:none;stroke-dashoffset:365.29129028;stroke-opacity:1;paint-order:stroke fill markers" />
          <path
             inkscape:connector-curvature="0"
             id="path1519"
             d="m 41.662231,271.06653 c 0.08303,0.0658 7.325192,6.07022 7.58668,6.29001 l 0.297712,0.2502 1.867889,-0.42675 c 1.849189,-0.42246 1.867874,-0.4275 1.872098,-0.47809 0.0024,-0.0282 0.02191,-0.0863 0.04354,-0.12916 0.02164,-0.0428 0.03803,-0.1161 0.0365,-0.16282 -0.0016,-0.0467 0.0139,-0.10343 0.03437,-0.12608 0.02042,-0.0227 0.0348,-0.0785 0.03184,-0.1242 -0.0029,-0.0457 0.01306,-0.13047 0.03567,-0.18842 0.02256,-0.058 0.04402,-0.15036 0.04765,-0.20535 0.0037,-0.055 0.02224,-0.1173 0.04141,-0.13847 0.01916,-0.0211 0.0331,-0.081 0.03099,-0.13285 -0.002,-0.0519 0.0087,-0.1027 0.02372,-0.11285 0.01512,-0.0103 0.03582,-0.0847 0.04594,-0.1656 0.01015,-0.0809 0.03719,-0.1902 0.06014,-0.24286 0.02295,-0.0527 0.03618,-0.11986 0.0294,-0.14935 -0.0068,-0.0294 0.0057,-0.0735 0.02782,-0.098 0.02407,-0.0266 0.03825,-0.091 0.0354,-0.16099 -0.0026,-0.0641 0.0067,-0.13859 0.02076,-0.16547 0.01404,-0.0269 0.03603,-0.11721 0.04881,-0.20074 0.01278,-0.0835 0.03546,-0.16005 0.05041,-0.17008 0.01484,-0.0103 0.02818,-0.068 0.02949,-0.12875 0.0013,-0.0608 0.01701,-0.12378 0.03497,-0.13999 0.01796,-0.0162 0.03238,-0.0791 0.03213,-0.13981 -2.67e-4,-0.0607 0.01669,-0.1484 0.03772,-0.19489 0.02103,-0.0464 0.04205,-0.12639 0.04674,-0.17755 0.0047,-0.0511 0.02523,-0.1169 0.04569,-0.1461 0.02043,-0.0292 0.03329,-0.0702 0.02849,-0.0911 -0.0047,-0.0209 0.0051,-0.0793 0.02199,-0.12969 0.01685,-0.0505 0.03882,-0.1527 0.04879,-0.22733 0.01004,-0.0746 0.035,-0.15975 0.05561,-0.1892 0.0206,-0.0294 0.03184,-0.0778 0.02501,-0.10758 -0.0068,-0.0297 0.0065,-0.0908 0.02957,-0.13575 0.02306,-0.0449 0.03989,-0.12585 0.03731,-0.17985 -0.0026,-0.054 0.0056,-0.11746 0.01825,-0.14106 0.01259,-0.0236 0.03356,-0.10178 0.04659,-0.17377 0.013,-0.072 0.03775,-0.15669 0.05487,-0.18822 0.01716,-0.0316 0.03358,-0.1047 0.03662,-0.16262 0.003,-0.0579 0.01907,-0.11445 0.03576,-0.12564 0.01661,-0.0114 0.02767,-0.0656 0.02444,-0.12097 -0.0032,-0.0553 0.0034,-0.10981 0.01478,-0.12101 0.01135,-0.0112 0.03626,-0.0987 0.05534,-0.19435 0.01906,-0.0957 0.05106,-0.19812 0.07106,-0.22761 0.01999,-0.0294 0.02927,-0.0847 0.02054,-0.12278 -0.0087,-0.038 -0.006,-0.0789 0.0061,-0.0909 0.01208,-0.0119 0.04059,-0.10663 0.06327,-0.21045 0.02268,-0.10382 0.05074,-0.21917 0.06229,-0.25632 0.01154,-0.0372 0.02731,-0.0972 0.03495,-0.13347 0.0077,-0.0363 0.02281,-0.0967 0.03364,-0.13423 0.01084,-0.0376 0.01467,-0.11748 0.0085,-0.1776 l -0.01112,-0.1093 -0.01286,0.0883 -0.01286,0.0883 -0.06437,-0.0519 c -0.03545,-0.0285 -0.08688,-0.0467 -0.11436,-0.0404 -0.02745,0.006 -0.09817,0.0117 -0.157091,0.0119 -0.155241,7.2e-4 -0.701949,0.0642 -1.010611,0.11749 -0.146329,0.0253 -0.307621,0.0447 -0.358414,0.0432 -0.11295,-0.003 -0.243702,0.014 -0.732149,0.0974 -0.208329,0.0356 -0.395104,0.0591 -0.41506,0.0523 -0.01992,-0.007 -0.07461,-0.006 -0.12149,0.002 -0.126351,0.0206 -0.568578,0.0765 -0.806732,0.10209 -0.192974,0.0208 -0.653224,0.0779 -0.854985,0.106 -0.467468,0.0653 -0.737617,0.0989 -0.966383,0.12014 -0.235614,0.0219 -0.471244,0.0509 -1.185959,0.14622 -0.08722,0.0117 -0.191736,0.0246 -0.232258,0.0288 -0.0992,0.0103 -1.874602,0.23215 -3.947661,0.4932 -0.934152,0.11763 -1.753447,0.2208 -1.820652,0.22927 -0.06714,0.009 -0.188105,0.024 -0.26865,0.0346 -0.08055,0.0106 -0.17378,0.0198 -0.20714,0.0205 -0.04759,8.7e-4 -0.05367,0.007 -0.02844,0.0268 z m 12.124352,3.53175 c -0.0187,0.0298 -0.04717,-0.002 -0.03461,-0.0388 0.0095,-0.0277 0.01507,-0.029 0.02872,-0.007 0.0096,0.0153 0.01201,0.0358 0.0059,0.0456 z m -0.191145,0.58225 c -0.0032,0.0208 -0.01021,0.0165 -0.01775,-0.0111 -0.0065,-0.025 -0.0047,-0.0402 0.0054,-0.0341 0.0097,0.006 0.01535,0.0265 0.01266,0.0452 z"
             style="opacity:1;fill:#f1792b;fill-opacity:1;fill-rule:nonzero;stroke:#ffffff;stroke-width:0.4;stroke-linecap:round;stroke-linejoin:round;stroke-miterlimit:4;stroke-dasharray:none;stroke-dashoffset:365.29129028;stroke-opacity:1;paint-order:stroke fill markers" />
          <path
             inkscape:connector-curvature="0"
             id="path1521"
             d="m 47.305886,262.43495 c 0.0093,0.0406 -0.0062,0.059 -0.0741,0.0879 -0.04724,0.0201 -1.413997,0.63396 -3.037243,1.36407 -1.623243,0.73011 -2.9823,1.3405 -3.02013,1.35644 -0.03778,0.0162 -0.217259,0.0969 -0.398722,0.17984 -0.181479,0.083 -0.404227,0.18282 -0.495007,0.22187 -0.09079,0.039 -0.197817,0.0904 -0.237821,0.11409 -0.08947,0.0529 -0.528527,0.25626 -0.608806,0.28191 -0.0322,0.0104 -0.08782,0.0389 -0.12358,0.0635 -0.03577,0.0247 -0.117815,0.0615 -0.182319,0.082 -0.129665,0.0412 -0.353836,0.14797 -0.394251,0.18779 -0.01426,0.014 -0.126532,0.0641 -0.24949,0.11114 -0.122956,0.0471 -0.278805,0.11605 -0.346307,0.1533 -0.06751,0.0373 -0.210399,0.10484 -0.317544,0.15013 -0.10714,0.0454 -0.260129,0.11821 -0.339961,0.16203 -0.07983,0.0438 -0.213362,0.10286 -0.296725,0.13131 -0.08337,0.0284 -0.206241,0.0846 -0.273032,0.12496 -0.0668,0.0403 -0.230187,0.11719 -0.363082,0.17083 -0.132893,0.0536 -0.31218,0.13515 -0.398431,0.18111 -0.08626,0.046 -0.25268,0.12333 -0.369864,0.17186 -0.117178,0.0486 -0.234876,0.10263 -0.261573,0.12014 -0.0267,0.0175 -0.100521,0.0518 -0.164094,0.0761 -0.141549,0.0541 -0.284016,0.13188 -0.279282,0.1525 0.004,0.0174 1.724928,0.25781 1.815538,0.25365 0.03265,-10e-4 0.09077,0.005 0.129138,0.0151 0.03839,0.01 0.159477,0.0158 0.269149,0.013 0.141302,-0.003 0.22161,0.009 0.275809,0.0413 0.06694,0.0399 0.0792,0.0403 0.09815,0.003 0.01919,-0.038 0.03366,-0.0398 0.12577,-0.0168 0.05726,0.0145 0.106324,0.0357 0.109015,0.0475 0.0027,0.0117 0.102548,0.0874 0.221887,0.16816 0.119343,0.0807 0.260217,0.18204 0.313057,0.22513 0.05286,0.0431 0.167707,0.12623 0.255235,0.18475 0.0875,0.0586 0.241055,0.16745 0.341168,0.24203 0.100115,0.0746 0.250346,0.18471 0.333849,0.24474 0.08351,0.06 0.197813,0.14376 0.254019,0.18607 0.202485,0.15245 1.75715,1.16536 1.780442,1.16002 0.01306,-0.003 1.172376,-1.34392 2.576126,-2.97979 1.403759,-1.63587 2.896097,-3.37405 3.316312,-3.86261 0.420216,-0.48856 0.771088,-0.89826 0.779716,-0.91044 0.0086,-0.0121 -0.150343,-0.16897 -0.35328,-0.3484 -0.434057,-0.38378 -0.425052,-0.37695 -0.409783,-0.31049 z"
             style="opacity:1;fill:#f1792b;fill-opacity:1;fill-rule:nonzero;stroke:#ffffff;stroke-width:0.4;stroke-linecap:round;stroke-linejoin:round;stroke-miterlimit:4;stroke-dasharray:none;stroke-dashoffset:365.29129028;stroke-opacity:1;paint-order:stroke fill markers" />
          <path
             inkscape:connector-curvature="0"
             id="path1523"
             d="m 34.317097,262.7527 c -0.0043,0.0453 0.41325,5.25143 0.421559,5.25639 0.0036,0.002 0.614867,-0.64926 1.358016,-1.44781 0.743156,-0.79854 1.786827,-1.91982 2.31928,-2.49173 0.532445,-0.57193 1.069216,-1.149 1.192813,-1.2824 l 0.224724,-0.24254 -0.189754,0.0116 c -0.104373,0.006 -0.280309,0.0115 -0.390982,0.0115 -0.110662,-1.5e-4 -0.251137,0.004 -0.312164,0.009 -0.06105,0.005 -0.180196,0.004 -0.264833,-0.004 -0.08462,-0.007 -0.236839,-0.005 -0.338228,0.005 -0.101397,0.0102 -0.297913,0.0166 -0.436737,0.0144 -0.13881,-0.002 -0.317416,0.003 -0.396895,0.0121 -0.07948,0.009 -0.227229,0.009 -0.328325,10e-4 -0.101126,-0.008 -0.281637,-9.1e-4 -0.401229,0.0162 -0.119593,0.0172 -0.250882,0.0227 -0.291747,0.0122 -0.04089,-0.0102 -0.165324,-0.0104 -0.276536,3.1e-4 -0.111235,0.0106 -0.299212,0.0157 -0.41776,0.0114 -0.118544,-0.004 -0.299039,-0.002 -0.401113,0.005 -0.210366,0.0148 -0.185599,0.0133 -0.672932,0.041 -0.4253,0.0241 -0.393331,0.0193 -0.397152,0.0597 z"
             style="opacity:1;fill:#f1792b;fill-opacity:1;fill-rule:nonzero;stroke:#ffffff;stroke-width:0.4;stroke-linecap:round;stroke-linejoin:round;stroke-miterlimit:4;stroke-dasharray:none;stroke-dashoffset:365.29129028;stroke-opacity:1;paint-order:stroke fill markers" />
          <path
             inkscape:connector-curvature="0"
             id="path1525"
             d="m 41.307853,257.29831 c -0.01338,0.15242 -0.03487,0.26415 -0.06799,0.35378 -0.02078,0.0562 -0.03349,0.12063 -0.02832,0.14314 0.0052,0.0225 -0.01126,0.0754 -0.03648,0.11756 -0.02522,0.0421 -0.045,0.10067 -0.04402,0.13007 6.93e-4,0.0294 -0.02067,0.13042 -0.04826,0.22452 -0.02757,0.0941 -0.0414,0.17657 -0.03073,0.18327 0.01067,0.007 0.0072,0.015 -0.0084,0.0186 -0.01529,0.003 -0.02378,0.0139 -0.01879,0.0231 0.02229,0.0411 -0.07335,0.53936 -0.122227,0.6365 -0.02845,0.0565 -0.672307,3.08812 -0.657527,3.09593 0.02224,0.0117 2.315226,0.0609 2.508806,0.0538 0.107696,-0.004 0.211203,4.8e-4 0.230008,0.01 0.0188,0.01 0.148446,0.008 0.288077,-0.002 0.139646,-0.0107 0.273831,-0.0143 0.298193,-0.008 0.02438,0.006 0.15055,0.006 0.280432,-4.3e-4 0.129875,-0.007 0.316406,-0.007 0.414518,-0.002 0.09815,0.005 0.273042,0.004 0.388751,-0.004 0.115715,-0.008 0.251591,-0.008 0.301957,9.4e-4 0.05041,0.008 0.173497,0.01 0.273601,0.002 0.100121,-0.007 0.303512,-0.009 0.451973,-0.003 0.148459,0.006 0.335726,0.003 0.416132,-0.006 0.08039,-0.009 0.202721,-0.008 0.271828,0.003 0.06903,0.0107 0.168585,0.009 0.221057,-0.003 0.05251,-0.0121 0.161528,-0.0158 0.242332,-0.008 0.08076,0.008 0.190852,0.0113 0.244564,0.009 l 0.09766,-0.005 -0.0781,-0.0656 c -0.04297,-0.0361 -0.750906,-0.66223 -1.573258,-1.39141 -1.266307,-1.12284 -1.945971,-1.72298 -2.2553,-1.99139 -0.03457,-0.03 -0.09121,-0.0806 -0.125859,-0.11258 -0.03471,-0.032 -0.07029,-0.062 -0.07923,-0.0669 -0.04364,-0.0238 -0.310421,-0.2584 -0.31459,-0.27655 -0.0026,-0.0114 -0.0357,-0.0322 -0.07349,-0.0462 -0.0378,-0.0139 -0.07218,-0.0405 -0.07646,-0.0591 -0.0043,-0.0186 -0.06251,-0.0755 -0.129392,-0.12657 -0.210116,-0.16035 -0.242592,-0.18592 -0.427297,-0.33639 -0.09914,-0.0808 -0.193325,-0.16927 -0.209288,-0.19666 -0.01595,-0.0274 -0.0381,-0.0477 -0.04923,-0.0451 -0.02492,0.006 -0.314355,-0.22493 -0.348473,-0.27766 -0.01357,-0.021 -0.04693,-0.0332 -0.07401,-0.0269 -0.02708,0.006 -0.05109,0.0314 -0.05325,0.0561 z"
             style="opacity:1;fill:#f1792b;fill-opacity:1;fill-rule:nonzero;stroke:#ffffff;stroke-width:0.4;stroke-linecap:round;stroke-linejoin:round;stroke-miterlimit:4;stroke-dasharray:none;stroke-dashoffset:365.29129028;stroke-opacity:1;paint-order:stroke fill markers" />
          <path
             inkscape:connector-curvature="0"
             id="path1527"
             d="m 30.812398,256.36553 c -0.167782,0.0771 -0.288497,0.19626 -0.179344,0.17708 0.0233,-0.004 -0.02327,0.0274 -0.103358,0.07 -0.169939,0.0904 -0.17939,0.0981 -3.016144,2.46835 -3.855468,3.22144 -4.113362,3.43751 -4.126598,3.45748 -0.014,0.0211 3.49176,0.0593 3.573246,0.039 0.02681,-0.007 0.06121,-0.005 0.07645,0.005 0.02984,0.018 0.380596,0.015 0.463536,-0.004 0.02766,-0.006 0.121575,-0.006 0.208726,9.2e-4 0.178393,0.014 0.547239,0.002 0.648233,-0.0216 0.03661,-0.008 0.111283,-0.004 0.165882,0.009 0.05464,0.0134 0.1654,0.018 0.246298,0.009 0.08087,-0.009 0.188399,-0.008 0.23895,10e-4 0.09805,0.018 0.242451,0.0144 0.499888,-0.0131 0.08775,-0.009 0.234722,-0.01 0.326614,-0.001 0.09184,0.009 0.253204,0.007 0.358492,-0.004 0.116069,-0.0124 0.212223,-0.009 0.244307,0.009 0.03732,0.0208 0.127308,0.0186 0.305278,-0.007 0.160957,-0.0232 0.295323,-0.0278 0.370914,-0.0129 0.06525,0.0125 0.189908,0.014 0.277163,0.002 0.241739,-0.0319 0.434054,-0.038 0.516846,-0.0164 0.04104,0.011 0.126166,0.008 0.189007,-0.007 0.06286,-0.0143 0.180411,-0.0198 0.261264,-0.012 0.229209,0.0221 0.459075,0.0227 0.549396,0.002 0.04536,-0.0104 0.124728,-0.0117 0.176411,-0.003 0.05172,0.009 0.12766,0.008 0.168767,-7e-4 0.04115,-0.009 0.12134,-0.0112 0.17823,-0.004 0.05692,0.007 0.137922,0.005 0.180046,-0.004 0.04217,-0.009 0.133311,-10e-4 0.202604,0.0174 0.09269,0.0249 0.16268,0.0251 0.264579,0.002 0.0984,-0.0226 0.14678,-0.0227 0.166864,-6.4e-4 0.0228,0.0251 0.04252,0.007 0.101884,-0.0923 0.150381,-0.25247 2.93704,-5.53416 2.931831,-5.55683 -0.003,-0.013 -0.04474,-0.022 -0.09283,-0.0201 -0.04807,0.002 -0.118579,-0.0115 -0.156746,-0.029 -0.03812,-0.0179 -0.130339,-0.0287 -0.204956,-0.0236 -0.07461,0.005 -0.165571,-0.002 -0.202203,-0.0158 -0.03664,-0.0135 -0.137691,-0.0206 -0.224471,-0.0164 -0.08684,0.004 -0.229755,-0.008 -0.317624,-0.0269 -0.08785,-0.0193 -0.192178,-0.0273 -0.231749,-0.0185 -0.03959,0.009 -0.118219,0.004 -0.174641,-0.0114 -0.05645,-0.0153 -0.16438,-0.0254 -0.239882,-0.0219 -0.07548,0.003 -0.181033,-0.005 -0.234555,-0.0185 -0.05352,-0.0133 -0.15275,-0.0195 -0.220494,-0.0133 -0.0677,0.006 -0.182162,-0.003 -0.254271,-0.0199 -0.07212,-0.0171 -0.188126,-0.0298 -0.257903,-0.0279 -0.06972,0.002 -0.174998,-0.007 -0.233915,-0.0202 -0.05893,-0.0124 -0.161987,-0.0176 -0.228972,-0.0116 -0.06705,0.006 -0.178508,-0.002 -0.247748,-0.0188 -0.06923,-0.0168 -0.185252,-0.0287 -0.257764,-0.0271 -0.07253,0.002 -0.181403,-0.008 -0.241973,-0.0208 -0.06054,-0.0134 -0.164179,-0.0208 -0.230248,-0.0172 -0.06605,0.004 -0.158882,-0.003 -0.206243,-0.0157 -0.04737,-0.0125 -0.12808,-0.0194 -0.179451,-0.0153 -0.05137,0.004 -0.194399,-0.008 -0.317894,-0.0261 -0.123536,-0.0181 -0.244675,-0.0292 -0.26938,-0.0233 -0.02464,0.006 -0.115414,-0.002 -0.20169,-0.0159 -0.08629,-0.0143 -0.181672,-0.0208 -0.212039,-0.014 -0.03035,0.007 -0.108482,0.001 -0.173619,-0.0121 -0.06518,-0.0132 -0.211592,-0.0255 -0.32543,-0.027 -0.283776,-0.004 -0.276625,-0.004 -0.327666,0.0192 z m 0.433322,0.0509 c -0.01469,0.0102 -0.04674,0.0183 -0.07148,0.0172 -0.02454,-7.7e-4 -0.01266,-0.009 0.02666,-0.0186 0.0393,-0.01 0.05943,-0.009 0.0448,10e-4 z m 1.442438,0.0967 c -0.02164,0.0111 -0.05927,0.0196 -0.0836,0.0192 -0.02426,-7.3e-4 -0.0068,-0.01 0.03932,-0.0204 0.04601,-0.0105 0.06594,-0.01 0.04436,9.7e-4 z"
             style="opacity:1;fill:#f1792b;fill-opacity:1;fill-rule:nonzero;stroke:#ffffff;stroke-width:0.4;stroke-linecap:round;stroke-linejoin:round;stroke-miterlimit:4;stroke-dasharray:none;stroke-dashoffset:365.29129028;stroke-opacity:1;paint-order:stroke fill markers" />
          <path
             inkscape:connector-curvature="0"
             id="path1529"
             d="m 37.41551,256.86613 c -0.0054,0.0156 0.01007,0.024 0.03368,0.0188 0.02683,-0.006 0.01217,0.0189 -0.03886,0.0655 -0.05261,0.048 -0.224244,0.34322 -0.477634,0.82148 -0.217516,0.41057 -0.873023,1.64773 -1.456681,2.74925 -0.583656,1.10151 -1.061043,2.01846 -1.060851,2.03766 -1.43e-4,0.0193 0.01114,0.0385 0.02418,0.043 0.0527,0.0179 5.638383,-0.31862 5.661121,-0.34103 0.02925,-0.0288 0.161456,-0.63152 0.956089,-4.3591 0.171997,-0.80682 0.173327,-0.75956 -0.02108,-0.74694 -0.04975,0.003 -0.14462,-0.009 -0.210822,-0.0265 -0.0662,-0.0177 -0.182103,-0.026 -0.257559,-0.0184 -0.07546,0.008 -0.163764,-1.7e-4 -0.196228,-0.0173 -0.03247,-0.0172 -0.124722,-0.028 -0.205057,-0.0236 -0.08031,0.004 -0.197374,-0.004 -0.260127,-0.0185 -0.06272,-0.0144 -0.179233,-0.0216 -0.258826,-0.0164 -0.0796,0.005 -0.184479,-0.004 -0.233063,-0.0204 -0.04857,-0.0164 -0.137933,-0.0265 -0.19854,-0.0221 -0.0606,0.004 -0.152173,-0.003 -0.203483,-0.0172 -0.05128,-0.0137 -0.132585,-0.0222 -0.180486,-0.0199 -0.120088,0.007 -0.245336,-0.002 -0.377786,-0.028 -0.06155,-0.012 -0.148274,-0.0204 -0.192704,-0.0184 -0.04444,0.002 -0.153053,-0.007 -0.241328,-0.0193 -0.08823,-0.0131 -0.191097,-0.016 -0.228428,-0.008 -0.03734,0.009 -0.10999,0.004 -0.161382,-0.01 -0.134251,-0.0363 -0.202957,-0.0381 -0.21402,-0.006 z"
             style="opacity:1;fill:#f7925c;fill-opacity:1;fill-rule:nonzero;stroke:#ffffff;stroke-width:0.4;stroke-linecap:round;stroke-linejoin:round;stroke-miterlimit:4;stroke-dasharray:none;stroke-dashoffset:365.29129028;stroke-opacity:1;paint-order:stroke fill markers" />
          <path
             inkscape:connector-curvature="0"
             id="path1531"
             d="m 40.080323,262.42353 c -0.03185,0.0311 -0.05008,0.0722 -0.04139,0.0935 0.01987,0.0484 -0.07994,0.22657 -0.169035,0.30187 -0.03764,0.0317 -0.116129,0.115 -0.174466,0.1849 -0.0583,0.0699 -0.121079,0.14158 -0.139426,0.15928 -0.01836,0.0177 -0.110742,0.11228 -0.205323,0.21017 -0.09457,0.0979 -0.18877,0.19313 -0.209311,0.21164 -0.02053,0.0185 -0.144067,0.14751 -0.274491,0.28667 -0.130423,0.13916 -0.287605,0.30421 -0.349295,0.36679 -0.06169,0.0626 -0.149952,0.15433 -0.196152,0.20388 -0.04616,0.0496 -0.09149,0.0918 -0.100661,0.094 -0.0091,0.002 -0.05819,0.0585 -0.108882,0.12532 -0.05071,0.0669 -0.101646,0.12368 -0.113165,0.12632 -0.01151,0.002 -0.09317,0.0837 -0.181418,0.18023 -0.08825,0.0965 -0.208231,0.22537 -0.266612,0.2864 -0.05836,0.061 -0.143906,0.15094 -0.190059,0.19977 -0.04618,0.0488 -0.118902,0.12504 -0.161656,0.16934 -0.04274,0.0443 -0.253071,0.26741 -0.467362,0.4958 -0.444303,0.47353 -0.429962,0.45847 -0.520132,0.54609 -0.184786,0.17956 -0.302276,0.30611 -0.323918,0.34891 -0.01317,0.0261 -0.05606,0.0704 -0.09537,0.0984 -0.03926,0.0281 -0.09054,0.0793 -0.113939,0.11371 -0.02339,0.0345 -0.10367,0.11718 -0.178395,0.18378 -0.07472,0.0666 -0.157298,0.15089 -0.183509,0.1873 -0.02622,0.0364 -0.09431,0.10942 -0.151327,0.16222 -0.05874,0.0544 -0.08744,0.0955 -0.06621,0.0949 0.02058,-10e-4 2.262667,-1.00329 4.982361,-2.22817 2.719695,-1.22488 5.001526,-2.25148 5.070727,-2.28133 0.06922,-0.0298 0.253155,-0.11654 0.408775,-0.19261 0.155612,-0.0761 0.312953,-0.14519 0.349615,-0.1536 0.08894,-0.0204 0.268143,-0.11216 0.318962,-0.16331 0.02248,-0.0226 0.119746,-0.0671 0.216197,-0.0987 0.09645,-0.0317 0.229977,-0.0907 0.296741,-0.13123 0.06676,-0.0405 0.152536,-0.0842 0.190612,-0.0971 0.06912,-0.0234 -6.215735,-0.18117 -6.498999,-0.16314 -0.27789,0.0177 -0.295838,0.0216 -0.353513,0.078 z"
             style="opacity:1;fill:#f7925c;fill-opacity:1;fill-rule:nonzero;stroke:#ffffff;stroke-width:0.4;stroke-linecap:round;stroke-linejoin:round;stroke-miterlimit:4;stroke-dasharray:none;stroke-dashoffset:365.29129028;stroke-opacity:1;paint-order:stroke fill markers" />
          <path
             inkscape:connector-curvature="0"
             id="path1541"
             d="m 23.156489,262.69153 c -0.02103,0.0151 -0.03253,0.0527 -0.02557,0.0836 0.0069,0.031 -0.0373,0.12358 -0.09821,0.20585 -0.06094,0.0823 -0.12768,0.19714 -0.148325,0.25524 -0.02065,0.058 -0.123058,0.25022 -0.227595,0.42693 -0.238848,0.40376 -0.359567,0.62349 -0.386682,0.70376 -0.01937,0.0573 -0.188067,0.36428 -0.530307,0.96484 -0.07173,0.12588 -0.210542,0.38297 -0.308476,0.57131 -0.09793,0.18835 -0.191822,0.36157 -0.208643,0.38495 -0.01683,0.0233 -0.163453,0.29651 -0.325842,0.60698 -0.162392,0.31047 -0.322014,0.60255 -0.354716,0.64909 -0.03269,0.0466 -0.189628,0.33002 -0.348723,0.62997 -0.159098,0.29995 -0.329682,0.61851 -0.379082,0.7079 -0.07746,0.14016 -0.5836,1.07546 -2.157809,3.98736 -0.187575,0.34697 -0.325782,0.63273 -0.307128,0.63503 0.01871,0.003 0.211219,-0.0537 0.427874,-0.12473 0.216673,-0.0709 0.527902,-0.16079 0.691608,-0.19977 0.163687,-0.039 0.378054,-0.10397 0.476302,-0.14455 0.165442,-0.0683 0.476331,-0.17772 1.080276,-0.38035 0.133188,-0.0447 0.252052,-0.0713 0.264129,-0.059 0.03297,0.0333 0.169318,-0.006 0.202197,-0.0585 0.01786,-0.0284 0.301237,-0.11944 0.743477,-0.23882 0.393032,-0.10612 0.753665,-0.219 0.8014,-0.25088 0.04773,-0.0318 0.169405,-0.0769 0.270384,-0.10008 0.10098,-0.0232 0.18067,-0.0549 0.177077,-0.0705 -0.0066,-0.0287 0.224561,-0.10633 1.733088,-0.58263 0.884602,-0.27928 1.059794,-0.33178 1.713413,-0.51351 0.575434,-0.16001 0.947137,-0.27422 0.960253,-0.29512 0.0061,-0.01 -0.163038,0.02 -0.375799,0.0658 -0.344057,0.0743 -0.302229,0.0584 0.379052,-0.14305 1.154625,-0.34138 1.174003,-0.34725 1.529409,-0.46308 0.18196,-0.0593 0.593706,-0.16974 0.915021,-0.24531 0.321224,-0.0759 0.607485,-0.15779 0.635982,-0.18261 0.02851,-0.0248 0.202256,-0.0823 0.386119,-0.1279 0.269673,-0.0671 1.833039,-0.5453 2.506325,-0.76711 0.08182,-0.0269 0.275801,-0.0881 0.431081,-0.13586 0.155261,-0.0478 0.398736,-0.13679 0.541016,-0.19786 0.142286,-0.0611 0.321659,-0.11616 0.398608,-0.12243 0.07693,-0.006 0.197692,-0.0385 0.268434,-0.0711 l 0.128537,-0.0597 -0.208561,-2.62972 c -0.114704,-1.44635 -0.210944,-2.63149 -0.213858,-2.63365 -0.0064,-0.005 -10.85024,-0.11492 -10.947086,-0.11108 -0.03883,10e-4 -0.08773,0.0148 -0.108629,0.0302 z m -1.301897,9.3479 c -0.02108,0.0147 -0.05907,0.0234 -0.08446,0.0194 -0.02541,-0.004 -0.0081,-0.0161 0.03832,-0.0267 0.04644,-0.0106 0.0672,-0.007 0.04616,0.007 z m -3.136226,1.01493 c 0.04599,0.009 -0.0865,0.0487 -0.348941,0.1064 -0.412601,0.0908 -0.416127,0.0909 -0.140889,0.006 0.155262,-0.0478 0.312279,-0.0957 0.348944,-0.10641 0.03666,-0.0107 0.100066,-0.0133 0.140886,-0.006 z"
             style="opacity:1;fill:#e35c29;fill-opacity:1;fill-rule:nonzero;stroke:#ffffff;stroke-width:0.4;stroke-linecap:round;stroke-linejoin:round;stroke-miterlimit:4;stroke-dasharray:none;stroke-dashoffset:365.29129028;stroke-opacity:1;paint-order:stroke fill markers" />
          <path
             inkscape:connector-curvature="0"
             id="path1545"
             d="m 29.493584,256.80236 c -0.142763,0.0597 -0.499573,0.17827 -0.792934,0.26345 -0.293357,0.0852 -0.605849,0.18777 -0.694413,0.22795 -0.08858,0.0401 -0.394353,0.13708 -0.679507,0.21543 -0.285154,0.0784 -0.588653,0.18086 -0.674433,0.22784 -0.08578,0.047 -0.438262,0.16702 -0.783285,0.26677 -0.345031,0.0997 -0.703716,0.21453 -0.7971,0.25498 -0.09339,0.0405 -0.416531,0.14535 -0.718104,0.23308 -0.301573,0.0877 -0.591435,0.18431 -0.644119,0.21467 -0.09032,0.052 -0.219534,0.0956 -0.859704,0.29024 -0.146247,0.0444 -0.382423,0.12387 -0.524847,0.1764 -0.142415,0.0525 -0.53949,0.18826 -0.882395,0.30156 -0.342908,0.1133 -0.631821,0.21937 -0.642053,0.23562 -0.01024,0.0163 0.03871,0.0993 0.108778,0.18458 0.07007,0.0852 0.15355,0.18891 0.185533,0.23037 0.05349,0.0694 0.186666,0.21831 0.539707,0.6037 0.07388,0.0807 0.203121,0.22666 0.287221,0.32447 0.08413,0.0978 0.189592,0.20753 0.234425,0.2438 0.04484,0.0363 0.08688,0.0892 0.09342,0.11773 0.0065,0.0284 0.03813,0.071 0.07013,0.0945 0.05275,0.0387 0.392654,0.42085 0.767898,0.86346 l 0.143974,0.16983 0.299371,-0.25802 c 0.164659,-0.14192 0.796461,-0.67156 1.404007,-1.177 0.607553,-0.50543 1.292199,-1.07772 1.521436,-1.27175 0.229247,-0.19404 1.202395,-1.00812 2.162555,-1.80909 0.960166,-0.80096 1.750827,-1.46321 1.757035,-1.47166 0.02929,-0.0399 -0.652717,0.15117 -0.882604,0.2472 z m 0.340726,-0.0648 c 0.01574,0.0159 0.0041,0.0346 -0.02605,0.0415 -0.03005,0.007 -0.04882,-0.004 -0.04155,-0.026 0.0072,-0.0212 0.01891,-0.0399 0.02605,-0.0415 0.0072,-0.001 0.02584,0.01 0.04155,0.026 z m -4.353803,1.44548 c -0.0086,0.0138 -0.03752,0.0216 -0.06405,0.0177 -0.02944,-0.004 -0.02323,-0.0144 0.01568,-0.0251 0.03527,-0.01 0.05703,-0.006 0.04844,0.007 z"
             style="opacity:1;fill:#d14521;fill-opacity:1;fill-rule:nonzero;stroke:#ffffff;stroke-width:0.4;stroke-linecap:round;stroke-linejoin:round;stroke-miterlimit:4;stroke-dasharray:none;stroke-dashoffset:365.29129028;stroke-opacity:1;paint-order:stroke fill markers" />
          <path
             inkscape:connector-curvature="0"
             id="path1547"
             d="m 22.611866,263.14581 c -0.194323,0.16223 -1.249966,1.01635 -1.949156,1.57705 -0.272506,0.21854 -0.873221,0.70342 -1.334915,1.07752 -0.461694,0.37409 -1.223611,0.99018 -1.693149,1.36907 -0.469538,0.37888 -0.859434,0.70175 -0.866433,0.71748 -0.007,0.0157 -0.02734,0.0346 -0.04518,0.0421 -0.0454,0.0189 -0.7127,0.55218 -2.04305,1.63271 -0.626349,0.50873 -1.321178,1.07152 -1.544069,1.25065 -0.222886,0.17912 -0.411308,0.34193 -0.418709,0.36179 -0.0074,0.0198 -0.02726,0.0379 -0.04414,0.0401 -0.07613,0.01 0.0017,0.0707 0.234144,0.18293 0.138385,0.0668 0.365402,0.18429 0.504482,0.26106 0.139076,0.0768 0.298103,0.16231 0.353383,0.1901 0.05527,0.0278 0.182227,0.0927 0.282103,0.14443 0.09989,0.0516 0.390213,0.20094 0.645186,0.33175 0.505734,0.25945 0.691824,0.35716 0.970531,0.5096 0.100662,0.055 0.30923,0.16189 0.463488,0.2374 0.154257,0.0755 0.382178,0.19447 0.506491,0.26434 0.339518,0.19081 0.440378,0.23756 0.488653,0.22649 0.02412,-0.006 0.37997,-0.63279 0.790779,-1.39391 0.410808,-0.76111 1.687186,-3.12475 2.836393,-5.2525 1.149213,-2.12776 2.086659,-3.88088 2.083225,-3.89582 -0.0095,-0.0415 -0.04213,-0.0229 -0.220058,0.12563 z m -0.227675,0.28923 c -0.0086,0.0138 -0.03752,0.0216 -0.06405,0.0177 -0.02943,-0.004 -0.02323,-0.0144 0.01568,-0.0251 0.03527,-0.01 0.05704,-0.006 0.04844,0.007 z"
             style="opacity:1;fill:#d14521;fill-opacity:1;fill-rule:nonzero;stroke:#ffffff;stroke-width:0.4;stroke-linecap:round;stroke-linejoin:round;stroke-miterlimit:4;stroke-dasharray:none;stroke-dashoffset:365.29129028;stroke-opacity:1;paint-order:stroke fill markers" />
          <path
             inkscape:connector-curvature="0"
             id="path1549"
             d="m 17.96677,260.64991 c -1.269335,0.43423 -3.398936,1.16002 -4.732446,1.61288 -1.333507,0.45287 -2.492938,0.84839 -2.57651,0.87895 -0.137075,0.0501 -0.158283,0.0732 -0.2166,0.23618 -0.03556,0.0993 -0.06699,0.19713 -0.06985,0.2173 -0.0029,0.0201 -0.06098,0.18519 -0.129156,0.36671 -0.181702,0.48381 -0.2910023,0.78705 -0.3067356,0.851 -0.00763,0.031 -0.063261,0.1875 -0.1236208,0.34771 -0.060356,0.16021 -0.1488267,0.41603 -0.1965994,0.56848 -0.047772,0.15244 -0.099035,0.27997 -0.1139177,0.28338 -0.014883,0.003 -0.022957,0.0241 -0.017958,0.0459 0.00502,0.0219 -0.024221,0.12833 -0.064952,0.23668 -0.1373419,0.3653 -0.1573491,0.42042 -0.1820177,0.50145 -0.013527,0.0445 -0.035142,0.10717 -0.048029,0.13939 -0.043255,0.10818 -0.2939576,0.808 -0.4015948,1.12104 -0.058626,0.1705 -0.1379753,0.39269 -0.1763376,0.49375 -0.038359,0.10107 -0.1244071,0.34799 -0.1912115,0.54871 -0.066804,0.20073 -0.1328907,0.37291 -0.1468585,0.38261 -0.013892,0.01 -0.021806,0.0333 -0.017434,0.0523 0.00439,0.0191 -0.057032,0.20451 -0.1364807,0.41208 -0.079446,0.20755 -0.1422132,0.38711 -0.1394812,0.399 0.00869,0.0379 -0.1050903,0.30667 -0.1533597,0.36228 -0.044156,0.0508 -0.0039,0.14504 0.042474,0.0993 0.028173,-0.0278 0.291215,-0.014 0.687465,0.0358 0.1712069,0.0216 0.3674759,0.0406 0.4362613,0.0415 0.068772,9.8e-4 0.2930087,0.0206 0.4983743,0.0428 0.2053847,0.0222 0.4338578,0.0417 0.5077636,0.0432 0.073911,0.001 0.303757,0.0207 0.510756,0.0429 0.206964,0.0224 0.398102,0.0353 0.42467,0.0292 0.02656,-0.006 0.111995,0.006 0.189797,0.0277 0.07784,0.0212 0.168055,0.0324 0.200474,0.025 0.03241,-0.007 0.121167,-0.005 0.197223,0.005 0.07607,0.0101 0.289923,0.0279 0.475258,0.0396 0.272843,0.0171 0.347413,0.0108 0.391884,-0.0335 0.0302,-0.0301 0.08367,-0.0612 0.118809,-0.0693 0.03514,-0.008 0.077,-0.0406 0.09303,-0.0722 0.01602,-0.0316 0.07513,-0.079 0.131365,-0.105 0.05622,-0.0261 0.12059,-0.072 0.143045,-0.10191 0.04904,-0.0655 0.364437,-0.31441 0.412206,-0.32536 0.01861,-0.004 0.06189,-0.0461 0.09622,-0.093 0.03433,-0.0468 0.0896,-0.0915 0.12282,-0.0991 0.03322,-0.008 0.06688,-0.0328 0.07478,-0.056 0.01671,-0.0491 0.385388,-0.33339 0.452006,-0.34867 0.02481,-0.006 0.06064,-0.0347 0.07965,-0.0645 0.01899,-0.0299 0.129572,-0.12813 0.245734,-0.21843 0.116168,-0.0903 0.230736,-0.18368 0.254608,-0.20747 0.02386,-0.0238 0.06431,-0.0568 0.08984,-0.0733 0.02554,-0.0165 0.07945,-0.0605 0.119826,-0.0976 0.04037,-0.0371 0.121202,-0.10319 0.179637,-0.1468 0.05842,-0.0437 0.14147,-0.11086 0.184532,-0.1494 0.04305,-0.0385 0.09635,-0.0742 0.118422,-0.0793 0.02207,-0.005 0.07181,-0.0484 0.110543,-0.0963 0.03873,-0.0479 0.0969,-0.0931 0.129282,-0.10058 0.03238,-0.007 0.07252,-0.0405 0.08922,-0.0735 0.01668,-0.0331 0.08546,-0.0913 0.152831,-0.12949 0.06737,-0.0382 0.134709,-0.0936 0.149638,-0.12319 0.01494,-0.0295 0.05461,-0.06 0.08817,-0.0677 0.03356,-0.008 0.07894,-0.0426 0.100848,-0.0774 0.0219,-0.035 0.09956,-0.1012 0.172575,-0.14738 0.07302,-0.0462 0.158858,-0.11077 0.190771,-0.14353 0.03191,-0.0327 0.09747,-0.0794 0.145682,-0.10365 0.04822,-0.0243 0.08424,-0.059 0.08005,-0.0772 -0.0042,-0.0182 0.01985,-0.0394 0.05341,-0.0471 0.03355,-0.008 0.102905,-0.0627 0.154118,-0.12219 0.05121,-0.0595 0.133648,-0.12734 0.183187,-0.15073 0.04954,-0.0234 0.103175,-0.0685 0.119204,-0.10016 0.01602,-0.0316 0.06436,-0.0657 0.107449,-0.0756 0.04307,-0.01 0.08404,-0.0348 0.09104,-0.0552 0.01134,-0.0332 0.254605,-0.23748 0.462641,-0.38856 0.04191,-0.0304 0.09606,-0.0733 0.120356,-0.0953 0.268778,-0.24323 0.588393,-0.49557 0.643769,-0.50827 0.02731,-0.006 0.06569,-0.0369 0.08529,-0.0681 0.01959,-0.0312 0.07027,-0.0768 0.112586,-0.10145 0.04233,-0.0245 0.109625,-0.081 0.149523,-0.12532 0.0399,-0.0444 0.110494,-0.0999 0.156865,-0.12351 0.04636,-0.0236 0.09711,-0.0682 0.112762,-0.0991 0.01564,-0.031 0.06506,-0.0647 0.109821,-0.075 0.04475,-0.0102 0.08468,-0.0419 0.08874,-0.0703 0.004,-0.0285 0.04485,-0.0708 0.09067,-0.0941 0.04581,-0.0233 0.116664,-0.0799 0.157424,-0.12566 0.04076,-0.0457 0.113942,-0.10351 0.162621,-0.12828 0.04868,-0.0247 0.143638,-0.0948 0.211016,-0.15558 0.231342,-0.20873 0.555547,-0.46144 0.607139,-0.47328 0.0284,-0.007 0.04806,-0.0274 0.0437,-0.0464 -0.0044,-0.0189 0.03027,-0.0598 0.07695,-0.0907 0.04669,-0.0309 0.159769,-0.11333 0.251283,-0.18323 0.09151,-0.0699 0.214083,-0.16328 0.272375,-0.20752 0.117663,-0.0893 0.126921,-0.0972 0.356503,-0.30569 0.08901,-0.0808 0.20073,-0.16471 0.248281,-0.18641 0.04755,-0.0217 0.08971,-0.0624 0.09369,-0.0904 0.004,-0.028 0.04833,-0.0603 0.09855,-0.0718 0.05019,-0.0115 0.110428,-0.0476 0.133803,-0.0803 0.07382,-0.10311 0.381615,-0.35723 0.452339,-0.37345 0.03734,-0.009 0.07123,-0.0393 0.07537,-0.0683 0.0041,-0.029 0.04837,-0.0721 0.09839,-0.0957 0.179271,-0.0847 0.198777,-0.0542 -0.634167,-0.99012 -0.100956,-0.11347 -0.224666,-0.25277 -0.274856,-0.30957 -0.05022,-0.0568 -0.167772,-0.18953 -0.261306,-0.29494 -0.09355,-0.10541 -0.226707,-0.25852 -0.295946,-0.34022 -0.06925,-0.0817 -0.136655,-0.15408 -0.149798,-0.16083 -0.01318,-0.007 -0.07322,-0.0728 -0.133552,-0.1468 -0.06033,-0.074 -0.184103,-0.21328 -0.275109,-0.30952 -0.09101,-0.0962 -0.191945,-0.21281 -0.224298,-0.25906 -0.05297,-0.0757 -0.07439,-0.0801 -0.21506,-0.0441 -0.08593,0.022 -1.194784,0.39531 -2.464121,0.82953 z"
             style="opacity:1;fill:#e7d5c8;fill-opacity:1;fill-rule:nonzero;stroke:#ffffff;stroke-width:0.4;stroke-linecap:round;stroke-linejoin:round;stroke-miterlimit:4;stroke-dasharray:none;stroke-dashoffset:365.29129028;stroke-opacity:1;paint-order:stroke fill markers" />
          <path
             inkscape:connector-curvature="0"
             id="path1551"
             d="m 7.6949087,271.16456 c -0.054555,0.13053 -0.2493572,0.5992 -0.4328924,1.04149 -0.183538,0.44229 -0.4111372,0.98001 -0.5057768,1.19491 -0.094642,0.2149 -0.1971526,0.46423 -0.2277974,0.55407 -0.030646,0.0898 -0.1672195,0.426 -0.3034967,0.74705 -0.1362786,0.32106 -0.3329303,0.78956 -0.4370036,1.04113 -0.1040753,0.25157 -0.2072695,0.46153 -0.2293228,0.4666 -0.02205,0.005 -0.032687,0.0414 -0.023667,0.0807 0.00904,0.0393 -0.00507,0.0764 -0.031352,0.0825 -0.026275,0.006 -0.040394,0.0431 -0.031353,0.0824 0.00904,0.0393 -0.00508,0.0764 -0.031352,0.0824 -0.026275,0.006 -0.040394,0.0431 -0.031352,0.0824 0.00904,0.0393 -0.00508,0.0764 -0.031352,0.0824 -0.026275,0.006 -0.040787,0.0414 -0.032264,0.0785 0.00853,0.0371 4.961e-4,0.0785 -0.01788,0.0919 -0.054169,0.0396 -0.5812772,1.48655 -0.5558381,1.52587 0.012788,0.0198 0.1067771,-0.0283 0.208828,-0.1069 0.102067,-0.0786 0.2184833,-0.13824 0.2587245,-0.13253 0.040246,0.006 0.069174,-0.007 0.064312,-0.0282 -0.012933,-0.0563 0.1903141,-0.20067 0.3262833,-0.23184 0.064451,-0.0147 0.1122496,-0.0483 0.1062445,-0.0745 -0.00603,-0.0262 0.037258,-0.0594 0.0962,-0.0738 0.058946,-0.0142 0.1416379,-0.0672 0.1838027,-0.1174 0.042166,-0.0502 0.1169583,-0.10048 0.1662154,-0.11178 0.049261,-0.0113 0.1305888,-0.0571 0.180747,-0.10175 0.050157,-0.0447 0.1143907,-0.0909 0.1427609,-0.10261 0.028351,-0.0118 0.1167855,-0.0702 0.1964839,-0.12983 0.079702,-0.0596 0.8792625,-0.60598 1.7767923,-1.21414 l 1.6318736,-1.10573 3.285045,-0.58639 c 1.806775,-0.32252 3.296087,-0.60258 3.309581,-0.62235 0.01874,-0.0275 -2.364251,-1.32822 -4.157063,-2.26911 -0.129603,-0.068 -0.737774,-0.13646 -2.410597,-0.27136 -1.2304967,-0.0992 -2.2613536,-0.18287 -2.2907987,-0.18593 -0.029437,-0.003 -0.09817,0.10124 -0.1527263,0.23176 z"
             style="opacity:1;fill:#e7d5c8;fill-opacity:1;fill-rule:nonzero;stroke:#ffffff;stroke-width:0.4;stroke-linecap:round;stroke-linejoin:round;stroke-miterlimit:4;stroke-dasharray:none;stroke-dashoffset:365.29129028;stroke-opacity:1;paint-order:stroke fill markers" />
        </g>
        <g
           id="g2028"
           transform="translate(15.279208,-90.091921)"
           style="stroke:#ffffff;stroke-opacity:1;stroke-width:0.4;stroke-miterlimit:4;stroke-dasharray:none">
          <path
             inkscape:connector-curvature="0"
             id="path1629"
             d="m 36.094021,237.32465 c 0,-0.0833 0.561475,-1.60546 1.24772,-3.38259 l 1.247719,-3.23115 2.726365,-2.04154 c 1.499502,-1.12285 2.754378,-2.01354 2.788615,-1.9793 0.03424,0.0342 -0.890883,2.33739 -2.05582,5.11812 l -2.118069,5.05588 -1.59086,0.21441 c -0.874972,0.11793 -1.738191,0.25564 -1.918264,0.30601 -0.180072,0.0504 -0.327406,0.0234 -0.327406,-0.0598 z"
             style="opacity:1;fill:#d4b8ac;fill-opacity:1;fill-rule:nonzero;stroke:#ffffff;stroke-width:0.4;stroke-linecap:round;stroke-linejoin:round;stroke-miterlimit:4;stroke-dasharray:none;stroke-dashoffset:365.29129028;stroke-opacity:1;paint-order:stroke fill markers" />
          <path
             id="path1652"
             d="m 13.38678,225.30592 c -0.11621,-0.0427 0.841284,1.02195 2.127518,2.36575 l 2.338359,2.44326 1.19941,3.24683 c 0.659537,1.78589 1.232722,3.31021 1.273824,3.38739 0.139131,0.26123 0.19769,0.14286 0.524516,-1.06453 l 0.326078,-1.2051 -1.001489,-2.69338 -1.002006,-2.69337 -2.787427,-1.85467 c -1.533073,-1.02003 -2.882574,-1.88945 -2.998783,-1.93218 z m 29.534632,0.0181 c -0.03055,-0.0328 -1.364118,0.80944 -2.963646,1.8712 l -2.908348,1.93012 -1.023194,2.75177 -1.023194,2.75228 0.383956,1.27021 c 0.311729,1.03265 0.412951,1.2007 0.54157,0.89659 0.08704,-0.2058 0.675698,-1.71108 1.307931,-3.34502 l 1.149284,-2.97088 2.295466,-2.54816 c 1.262576,-1.40158 2.270726,-2.57534 2.240175,-2.60811 z m -14.875579,7.26259 c -0.682191,0 -0.743537,0.0393 -0.660424,0.42117 0.05039,0.23152 0.22038,1.32829 0.377754,2.43757 0.157371,1.10928 0.296005,2.07724 0.307991,2.15129 0.03133,0.19379 0.695949,-4.08606 0.712618,-4.58886 0.01222,-0.36903 -0.07877,-0.42117 -0.737939,-0.42117 z"
             style="opacity:1;fill:#6c2e12;fill-opacity:1;fill-rule:nonzero;stroke:#ffffff;stroke-width:0.4;stroke-linecap:round;stroke-linejoin:round;stroke-miterlimit:4;stroke-dasharray:none;stroke-dashoffset:365.29129028;stroke-opacity:1;paint-order:stroke fill markers"
             inkscape:connector-curvature="0" />
          <path
             id="path1664"
             d="m 12.02924,224.4729 -0.697632,0.64233 -0.698149,0.64286 0.521932,3.36723 c 0.595343,3.83977 0.748628,3.72282 0.438216,-0.33538 -0.117585,-1.53726 -0.175402,-2.83371 -0.128157,-2.88096 0.04724,-0.0472 1.23454,0.7722 2.638082,1.82108 1.403541,1.04888 2.593557,1.86509 2.644799,1.81384 0.05124,-0.0512 -0.989715,-1.21329 -2.313037,-2.58227 z m 32.1045,0.11317 c -0.252314,0.11039 -3.753733,4.1171 -3.670577,4.20026 0.04958,0.0496 0.99423,-0.59081 2.099095,-1.42265 1.104866,-0.83184 2.07441,-1.51206 2.15491,-1.51206 0.08051,0 0.110498,0.2733 0.06666,0.60772 -0.147733,1.12708 -0.458034,5.15808 -0.438217,5.69164 0.01082,0.29099 0.293455,-0.98641 0.62787,-2.83859 l 0.607713,-3.36723 -0.66766,-0.70384 c -0.3673,-0.38708 -0.718214,-0.6822 -0.779796,-0.65525 z"
             style="opacity:1;fill:#e55d2d;fill-opacity:1;fill-rule:nonzero;stroke:#ffffff;stroke-width:0.4;stroke-linecap:round;stroke-linejoin:round;stroke-miterlimit:4;stroke-dasharray:none;stroke-dashoffset:365.29129028;stroke-opacity:1;paint-order:stroke fill markers"
             inkscape:connector-curvature="0" />
          <path
             inkscape:connector-curvature="0"
             id="path1567"
             d="m 25.769099,251.20656 c -0.305285,-0.17893 -0.57866,-0.3494 -0.607501,-0.37881 -0.02884,-0.0294 0.147012,-1.63106 0.390783,-3.55921 l 0.443219,-3.50573 2.0314,-0.0175 2.031402,-0.0175 0.03459,0.14978 c 0.01902,0.0824 0.258431,1.62318 0.532011,3.424 0.273581,1.80082 0.511701,3.33895 0.529158,3.41807 0.02709,0.12276 -0.05427,0.19308 -0.554897,0.47956 -0.322652,0.18464 -0.618178,0.33571 -0.656725,0.33571 -0.03855,0 -0.107029,-0.16507 -0.15218,-0.36683 -0.04515,-0.20175 -0.09938,-0.37652 -0.1205,-0.38839 -0.02111,-0.0119 -0.697542,-0.0424 -1.503153,-0.0679 l -1.464744,-0.0464 -0.144685,0.43478 c -0.07958,0.23913 -0.164582,0.43409 -0.188901,0.43325 -0.02432,-7.9e-4 -0.293995,-0.14792 -0.599279,-0.32686 z"
             style="opacity:1;fill:#f0772e;fill-opacity:1;fill-rule:nonzero;stroke:#ffffff;stroke-width:0.4;stroke-linecap:round;stroke-linejoin:round;stroke-miterlimit:4;stroke-dasharray:none;stroke-dashoffset:365.29129028;stroke-opacity:1;paint-order:stroke fill markers" />
          <path
             inkscape:connector-curvature="0"
             id="path1569"
             d="m 23.737194,249.05808 -1.177566,-1.50805 0.502782,-0.59809 c 0.276531,-0.32895 0.995931,-1.13653 1.598668,-1.79462 l 1.095885,-1.19653 -0.11176,0.82235 c -0.06147,0.4523 -0.250964,1.9385 -0.421102,3.30268 l -0.309342,2.48032 z"
             style="opacity:1;fill:#f7925c;fill-opacity:1;fill-rule:nonzero;stroke:#ffffff;stroke-width:0.4;stroke-linecap:round;stroke-linejoin:round;stroke-miterlimit:4;stroke-dasharray:none;stroke-dashoffset:365.29129028;stroke-opacity:1;paint-order:stroke fill markers" />
          <path
             id="path1574"
             d="m 27.814839,239.0596 c 0,-0.0523 -4.72549,1.01254 -4.792989,1.08004 -0.02622,0.0262 0.590254,0.7459 1.369942,1.59887 0.779689,0.85296 1.482715,1.48271 1.562696,1.3994 0.120103,-0.12511 1.860351,-3.9401 1.860351,-4.07831 z m 0.754477,0.11421 c -0.09948,-0.001 -0.146325,0.014 -0.133842,0.046 0.04553,0.11661 0.446646,1.07487 0.891419,2.12958 0.444772,1.05472 0.86139,1.91772 0.926041,1.91772 0.180316,0 2.800345,-2.74379 2.800345,-2.93264 0,-0.0914 -1.057608,-0.42755 -2.350244,-0.74672 -1.063257,-0.26254 -1.835284,-0.41038 -2.133719,-0.41393 z m 1.873269,5.16919 c -0.0057,0.002 -0.0088,0.008 -0.0088,0.016 0,0.31073 0.71579,5.03048 0.853178,5.6255 0.121719,0.52716 0.09977,0.54602 1.529106,-1.3131 l 0.951362,-1.23713 -1.667081,-1.65881 c -0.859377,-0.8554 -1.572027,-1.46898 -1.657781,-1.43248 z"
             style="opacity:1;fill:#f7925c;fill-opacity:1;fill-rule:nonzero;stroke:#ffffff;stroke-width:0.4;stroke-linecap:round;stroke-linejoin:round;stroke-miterlimit:4;stroke-dasharray:none;stroke-dashoffset:365.29129028;stroke-opacity:1;paint-order:stroke fill markers"
             inkscape:connector-curvature="0" />
          <path
             id="path1583"
             d="m 36.323881,230.06222 c -0.218414,0.0101 -2.106814,2.05281 -6.610451,7.14375 -1.058344,1.19636 -1.210233,1.44381 -0.838189,1.36012 0.25005,-0.0562 1.843553,-0.3228 3.541384,-0.59221 1.697829,-0.26941 3.107637,-0.50957 3.133143,-0.5333 0.02551,-0.0237 -0.158581,-0.64578 -0.409279,-1.38286 l -0.455784,-1.34049 0.83044,-2.25774 c 0.456718,-1.2419 0.83044,-2.30961 0.83044,-2.37247 0,-0.0171 -0.0071,-0.0255 -0.0217,-0.0248 z m -16.385047,0.0434 c -0.03991,0.0399 0.267265,0.97842 0.683163,2.08566 0.415897,1.10724 0.756543,2.17225 0.756543,2.36626 0,0.19402 -0.185344,0.98242 -0.411861,1.75235 -0.312776,1.06312 -0.48173,1.3805 -0.701766,1.31878 -0.554898,-0.15563 -3.759653,-0.53518 -3.840076,-0.45475 -0.04455,0.0445 -4.76e-4,0.64806 0.09767,1.341 0.162246,1.14567 0.136004,1.36405 -0.288872,2.40967 -0.25698,0.63244 -0.427889,1.18959 -0.379822,1.23766 0.04807,0.0481 0.299772,-0.0517 0.559139,-0.2217 0.449253,-0.29436 0.582842,-0.27708 2.826701,0.36639 1.295448,0.37149 2.748613,0.74159 3.22926,0.82269 0.480648,0.0811 1.377006,0.1574 1.992127,0.1695 l 1.118795,0.0222 -1.579749,-1.5875 c -0.963857,-0.96889 -1.508945,-1.65101 -1.398881,-1.75028 0.09919,-0.0895 1.295861,-0.39711 2.659269,-0.68368 1.36341,-0.28657 2.47892,-0.5587 2.47892,-0.6041 0,-0.0809 -4.360916,-5.01532 -4.75785,-5.38365 -0.110889,-0.1029 -0.824465,-0.883 -1.58595,-1.73322 -0.761485,-0.85023 -1.416849,-1.51321 -1.456759,-1.4733 z m 19.8484,7.09827 c -0.212881,-0.007 -1.013132,0.0844 -1.934247,0.22273 l -1.914096,0.28732 -0.960665,1.07332 c -0.528463,0.59023 -1.763102,1.90249 -2.743502,2.91662 l -1.78232,1.84381 1.590085,-0.13126 c 1.31527,-0.10889 6.817698,-1.42475 7.087938,-1.69499 0.04342,-0.0434 0.360506,0.0952 0.704866,0.308 0.344358,0.21283 0.626319,0.31192 0.626319,0.22014 0,-0.0918 -0.210203,-0.70217 -0.466638,-1.35651 -0.425762,-1.08641 -0.449095,-1.29505 -0.272851,-2.3983 0.106159,-0.66449 0.159549,-1.2414 0.118856,-1.28209 -0.0051,-0.005 -0.02334,-0.008 -0.05374,-0.009 z"
             style="opacity:1;fill:#e55d2d;fill-opacity:1;fill-rule:nonzero;stroke:#ffffff;stroke-width:0.4;stroke-linecap:round;stroke-linejoin:round;stroke-miterlimit:4;stroke-dasharray:none;stroke-dashoffset:365.29129028;stroke-opacity:1;paint-order:stroke fill markers"
             inkscape:connector-curvature="0" />
          <path
             inkscape:connector-curvature="0"
             id="path1609"
             d="m 16.777117,247.22784 -1.262849,-0.0654 v -2.19397 -2.19397 l 0.663055,-0.35708 0.663054,-0.35707 1.408901,1.39029 c 0.774896,0.76466 1.91642,1.95857 2.53672,2.65314 l 1.127819,1.26285 -1.936925,-0.0366 c -1.06531,-0.0202 -2.505209,-0.0661 -3.199775,-0.1021 z"
             style="opacity:1;fill:#e8d4c5;fill-opacity:1;fill-rule:nonzero;stroke:#ffffff;stroke-width:0.4;stroke-linecap:round;stroke-linejoin:round;stroke-miterlimit:4;stroke-dasharray:none;stroke-dashoffset:365.29129028;stroke-opacity:1;paint-order:stroke fill markers" />
          <path
             inkscape:connector-curvature="0"
             id="path1611"
             d="m 24.756451,253.41062 -0.95415,-0.48129 -0.769439,-2.5389 c -0.423191,-1.3964 -0.747327,-2.56102 -0.720303,-2.58805 0.02702,-0.027 0.592165,0.65569 1.255867,1.51714 0.663702,0.86145 1.522443,1.74803 1.908314,1.97016 0.38587,0.22213 0.701582,0.47468 0.701582,0.56122 0,0.0865 0.393258,0.38781 0.873903,0.66948 l 0.873905,0.51214 -0.827132,0.43263 c -1.032792,0.54019 -1.169852,0.537 -2.342547,-0.0545 z"
             style="opacity:1;fill:#e8d4c5;fill-opacity:1;fill-rule:nonzero;stroke:#ffffff;stroke-width:0.4;stroke-linecap:round;stroke-linejoin:round;stroke-miterlimit:4;stroke-dasharray:none;stroke-dashoffset:365.29129028;stroke-opacity:1;paint-order:stroke fill markers" />
          <path
             inkscape:connector-curvature="0"
             id="path1613"
             d="m 29.18651,253.46515 -0.827133,-0.43263 0.873903,-0.51214 c 0.480648,-0.28167 0.873903,-0.57507 0.873903,-0.65199 0,-0.0769 0.291171,-0.29665 0.647044,-0.48831 0.362982,-0.19547 1.117097,-0.98747 1.717749,-1.80403 0.588886,-0.80057 1.106257,-1.42002 1.149715,-1.37657 0.04346,0.0435 -0.274307,1.13923 -0.706141,2.43504 l -0.785151,2.35603 -0.911844,0.46207 c -0.501513,0.25413 -0.977784,0.45826 -1.058378,0.45361 -0.0806,-0.005 -0.518745,-0.20314 -0.973667,-0.44108 z"
             style="opacity:1;fill:#e8d4c5;fill-opacity:1;fill-rule:nonzero;stroke:#ffffff;stroke-width:0.4;stroke-linecap:round;stroke-linejoin:round;stroke-miterlimit:4;stroke-dasharray:none;stroke-dashoffset:365.29129028;stroke-opacity:1;paint-order:stroke fill markers" />
          <path
             inkscape:connector-curvature="0"
             id="path1615"
             d="m 35.070253,246.38437 c 2.305466,-2.44385 4.11512,-4.25627 4.249772,-4.25627 0.08076,0 0.439282,0.18942 0.796711,0.42095 0.631782,0.40923 0.64989,0.45479 0.65056,1.63702 2.64e-4,0.66884 -0.0524,1.65808 -0.117287,2.1983 l -0.117978,0.98221 h -3.194188 -3.194187 z"
             style="opacity:1;fill:#e8d4c5;fill-opacity:1;fill-rule:nonzero;stroke:#ffffff;stroke-width:0.4;stroke-linecap:round;stroke-linejoin:round;stroke-miterlimit:4;stroke-dasharray:none;stroke-dashoffset:365.29129028;stroke-opacity:1;paint-order:stroke fill markers" />
          <path
             inkscape:connector-curvature="0"
             id="path1617"
             d="m 40.346852,241.03473 c -0.775489,-2.19587 -0.622472,-2.92511 1.866352,-8.89459 1.311442,-3.14552 2.041649,-4.69134 2.083295,-4.41026 0.03527,0.23802 -0.118655,2.58576 -0.342048,5.2172 l -0.40617,4.78443 -1.306737,2.38538 c -0.718707,1.31196 -1.322496,2.38516 -1.34175,2.3849 -0.01926,-2.7e-4 -0.268081,-0.66044 -0.552942,-1.46706 z"
             style="opacity:1;fill:#e8d4c5;fill-opacity:1;fill-rule:nonzero;stroke:#ffffff;stroke-width:0.4;stroke-linecap:round;stroke-linejoin:round;stroke-miterlimit:4;stroke-dasharray:none;stroke-dashoffset:365.29129028;stroke-opacity:1;paint-order:stroke fill markers" />
          <path
             inkscape:connector-curvature="0"
             id="path1619"
             d="m 13.878564,239.96643 -1.355072,-2.30735 -0.387519,-5.17465 c -0.213135,-2.84606 -0.35474,-5.20744 -0.314677,-5.2475 0.04006,-0.0401 0.98876,2.09435 2.108215,4.74315 2.510953,5.94128 2.763219,7.04761 2.024915,8.88037 -0.260135,0.64576 -0.528731,1.22793 -0.596881,1.29371 -0.06815,0.0658 -0.733692,-0.91869 -1.478981,-2.18773 z"
             style="opacity:1;fill:#e8d4c5;fill-opacity:1;fill-rule:nonzero;stroke:#ffffff;stroke-width:0.4;stroke-linecap:round;stroke-linejoin:round;stroke-miterlimit:4;stroke-dasharray:none;stroke-dashoffset:365.29129028;stroke-opacity:1;paint-order:stroke fill markers" />
          <path
             inkscape:connector-curvature="0"
             id="path1627"
             d="m 17.821757,237.03346 -1.52783,-0.17819 -0.37035,-0.8715 c -2.847698,-6.70113 -3.802484,-9.04664 -3.717297,-9.13183 0.05619,-0.0562 1.323482,0.80341 2.816203,1.91022 l 2.714037,2.01239 0.745178,1.98177 c 0.409849,1.08998 0.961492,2.55006 1.225875,3.24462 l 0.480697,1.26285 -0.419342,-0.0261 c -0.230638,-0.0143 -1.106865,-0.10626 -1.947171,-0.20426 z"
             style="opacity:1;fill:#d4b8ac;fill-opacity:1;fill-rule:nonzero;stroke:#ffffff;stroke-width:0.4;stroke-linecap:round;stroke-linejoin:round;stroke-miterlimit:4;stroke-dasharray:none;stroke-dashoffset:365.29129028;stroke-opacity:1;paint-order:stroke fill markers" />
          <path
             inkscape:connector-curvature="0"
             id="path1631"
             d="m 31.682893,253.49066 c 0.709031,-0.40376 0.764837,-0.51106 1.652617,-3.17743 l 0.918805,-2.75956 h 3.228398 3.228399 l 0.397129,1.44146 c 0.218418,0.7928 0.37928,1.44999 0.357467,1.46043 -2.283507,1.09243 -4.962741,2.10239 -7.153819,2.69667 -3.203311,0.86883 -3.664715,0.92822 -2.628996,0.33843 z"
             style="opacity:1;fill:#d4b8ac;fill-opacity:1;fill-rule:nonzero;stroke:#ffffff;stroke-width:0.4;stroke-linecap:round;stroke-linejoin:round;stroke-miterlimit:4;stroke-dasharray:none;stroke-dashoffset:365.29129028;stroke-opacity:1;paint-order:stroke fill markers" />
          <path
             inkscape:connector-curvature="0"
             id="path1633"
             d="m 22.240276,253.27426 c -1.50307,-0.38825 -3.202682,-1.00479 -4.723845,-1.71358 -2.637211,-1.22883 -2.536104,-1.09111 -2.163423,-2.94682 l 0.212916,-1.06019 2.453097,0.0108 c 1.349203,0.006 2.782942,0.0694 3.186086,0.141 0.814929,0.14476 0.645839,-0.18578 1.797622,3.514 0.568418,1.82589 0.613709,1.90142 1.367249,2.28023 1.059585,0.53267 0.628547,0.48705 -2.129702,-0.22542 z"
             style="opacity:1;fill:#d4b8ac;fill-opacity:1;fill-rule:nonzero;stroke:#ffffff;stroke-width:0.4;stroke-linecap:round;stroke-linejoin:round;stroke-miterlimit:4;stroke-dasharray:none;stroke-dashoffset:365.29129028;stroke-opacity:1;paint-order:stroke fill markers" />
          <path
             inkscape:connector-curvature="0"
             id="path1635"
             d="m 26.533483,254.73634 -0.392982,-0.41831 0.985849,-0.56304 0.985851,-0.56304 0.890707,0.45135 c 0.489889,0.24825 0.938037,0.52794 0.995886,0.62154 0.200009,0.32362 -0.739585,0.72108 -1.903714,0.80528 -1.028975,0.0744 -1.215573,0.0345 -1.561597,-0.33378 z"
             style="opacity:1;fill:#c29883;fill-opacity:1;fill-rule:nonzero;stroke:#ffffff;stroke-width:0.4;stroke-linecap:round;stroke-linejoin:round;stroke-miterlimit:4;stroke-dasharray:none;stroke-dashoffset:365.29129028;stroke-opacity:1;paint-order:stroke fill markers" />
          <path
             inkscape:connector-curvature="0"
             id="path1637"
             d="m 27.236917,252.30829 c -0.465603,-0.31638 -0.674902,-0.5807 -0.604697,-0.76366 0.05905,-0.15388 0.107368,-0.3571 0.107368,-0.45158 0,-0.0945 0.631425,-0.17178 1.403164,-0.17178 0.771742,0 1.403165,0.0773 1.403165,0.17178 0,0.0945 0.04902,0.29953 0.108935,0.45566 0.07352,0.1916 -0.138113,0.43983 -0.651095,0.76366 -0.418013,0.26388 -0.826344,0.47978 -0.907402,0.47978 -0.08105,0 -0.467804,-0.21774 -0.859438,-0.48386 z"
             style="opacity:1;fill:#6a2d14;fill-opacity:1;fill-rule:nonzero;stroke:#ffffff;stroke-width:0.4;stroke-linecap:round;stroke-linejoin:round;stroke-miterlimit:4;stroke-dasharray:none;stroke-dashoffset:365.29129028;stroke-opacity:1;paint-order:stroke fill markers" />
          <path
             inkscape:connector-curvature="0"
             id="path1639"
             d="m 19.707472,244.57179 c -1.333434,-1.3744 -2.343713,-2.49646 -2.245063,-2.49348 0.09865,0.003 1.063356,0.26288 2.143793,0.57753 1.080437,0.31466 2.865427,0.67002 3.966645,0.7897 l 2.002215,0.21759 -1.597824,1.73057 c -0.878803,0.95182 -1.653515,1.71852 -1.721581,1.70378 -0.06807,-0.0147 -1.21475,-1.1513 -2.548185,-2.52569 z"
             style="opacity:1;fill:#f0772e;fill-opacity:1;fill-rule:nonzero;stroke:#ffffff;stroke-width:0.4;stroke-linecap:round;stroke-linejoin:round;stroke-miterlimit:4;stroke-dasharray:none;stroke-dashoffset:365.29129028;stroke-opacity:1;paint-order:stroke fill markers" />
          <path
             inkscape:connector-curvature="0"
             id="path1641"
             d="m 32.271292,245.50834 -1.634707,-1.64232 0.717516,-0.11855 c 0.394631,-0.0652 1.044641,-0.11947 1.444461,-0.12061 0.39982,-0.001 1.816023,-0.30473 3.147115,-0.67466 1.331095,-0.36994 2.447404,-0.64356 2.480691,-0.60804 0.03329,0.0355 -0.970182,1.1315 -2.229926,2.43553 l -2.290445,2.37096 z"
             style="opacity:1;fill:#f1772e;fill-opacity:1;fill-rule:nonzero;stroke:#ffffff;stroke-width:0.4;stroke-linecap:round;stroke-linejoin:round;stroke-miterlimit:4;stroke-dasharray:none;stroke-dashoffset:365.29129028;stroke-opacity:1;paint-order:stroke fill markers" />
          <path
             inkscape:connector-curvature="0"
             id="path1645"
             d="m 27.046335,241.52006 c 0.465638,-1.05471 0.913411,-1.98718 0.995045,-2.07215 0.08164,-0.085 0.234236,0.0834 0.339109,0.37418 0.10487,0.29076 0.490992,1.22323 0.858043,2.07215 l 0.667372,1.54348 H 28.05281 26.199716 Z"
             style="opacity:1;fill:#e45c2d;fill-opacity:1;fill-rule:nonzero;stroke:#ffffff;stroke-width:0.4;stroke-linecap:round;stroke-linejoin:round;stroke-miterlimit:4;stroke-dasharray:none;stroke-dashoffset:365.29129028;stroke-opacity:1;paint-order:stroke fill markers" />
          <path
             id="path1647"
             d="m 26.844873,232.79538 c -0.731494,0.007 -3.285588,0.41617 -3.285588,0.55604 0,0.0828 0.939138,1.20842 2.087211,2.50114 1.148072,1.29272 2.110494,2.32697 2.138886,2.29857 0.07389,-0.0739 -0.653253,-5.23437 -0.751374,-5.33249 -0.01733,-0.0173 -0.08464,-0.0243 -0.189135,-0.0233 z m 2.683039,0.0155 c -0.11208,-0.002 -0.191013,0.003 -0.224792,0.016 -0.203777,0.0782 -0.900163,4.15443 -0.884182,5.17591 0.0026,0.16122 0.06683,0.19916 0.158128,0.0935 0.0845,-0.0977 1.052452,-1.20198 2.15129,-2.45411 1.098838,-1.25214 1.997811,-2.31707 1.997811,-2.36626 0,-0.12175 -2.413691,-0.45348 -3.198255,-0.46509 z"
             style="opacity:1;fill:#f1772c;fill-opacity:1;fill-rule:nonzero;stroke:#ffffff;stroke-width:0.4;stroke-linecap:round;stroke-linejoin:round;stroke-miterlimit:4;stroke-dasharray:none;stroke-dashoffset:365.29129028;stroke-opacity:1;paint-order:stroke fill markers"
             inkscape:connector-curvature="0" />
          <path
             inkscape:connector-curvature="0"
             id="path1660"
             d="m 30.782204,239.3409 -2.037765,-0.49918 3.23066,-0.51592 c 1.776865,-0.28376 3.255867,-0.49071 3.286678,-0.45991 0.03081,0.0308 -0.324149,0.49727 -0.788792,1.03658 -0.564975,0.65576 -0.978659,0.97345 -1.24891,0.95909 -0.222258,-0.0118 -1.321099,-0.24611 -2.441871,-0.52066 z"
             style="opacity:1;fill:#d14522;fill-opacity:1;fill-rule:nonzero;stroke:#ffffff;stroke-width:0.4;stroke-linecap:round;stroke-linejoin:round;stroke-miterlimit:4;stroke-dasharray:none;stroke-dashoffset:365.29129028;stroke-opacity:1;paint-order:stroke fill markers" />
          <path
             id="path1669"
             d="m 20.227189,229.68188 c -0.04619,0.0462 0.568708,0.80299 1.366325,1.68155 1.593248,1.75493 1.418764,1.69158 3.731038,1.34927 l 1.484663,-0.21962 -3.248896,-1.44746 c -1.786932,-0.79613 -3.286938,-1.40993 -3.33313,-1.36374 z m 15.594912,0.13798 c -0.04678,-0.0468 -1.496928,0.53549 -3.222024,1.29397 l -3.136241,1.37925 1.584399,0.20825 c 0.8715,0.11471 1.682766,0.22018 1.802474,0.2341 0.239979,0.0279 3.107843,-2.97912 2.971392,-3.11557 z"
             style="opacity:1;fill:#d04521;fill-opacity:1;fill-rule:nonzero;stroke:#ffffff;stroke-width:0.4;stroke-linecap:round;stroke-linejoin:round;stroke-miterlimit:4;stroke-dasharray:none;stroke-dashoffset:365.29129028;stroke-opacity:1;paint-order:stroke fill markers"
             inkscape:connector-curvature="0" />
        </g>
      </g>
    </g>
  </g>
</svg>
